<svg xmlns="http://www.w3.org/2000/svg" width="24" height="24" viewBox="0 0 24 24"><g transform="translate(-867 -1377)"><rect width="24" height="24" transform="translate(867 1377)" fill="#d59b45" opacity="0"/><path d="M14,13.559a.943.943,0,0,0,.6-1.79Zm-3.1-2.027H9.957a.943.943,0,0,0,.645.895ZM11.843,6.8a.943.943,0,0,0-1.887,0Zm2.751,4.971-3.4-1.132-.6,1.79L14,13.559Zm-2.751-.237V6.8H9.957v4.734Zm7.17-1.132A8.113,8.113,0,0,1,10.9,18.513V20.4a10,10,0,0,0,10-10ZM10.9,18.513A8.113,8.113,0,0,1,2.787,10.4H.9a10,10,0,0,0,10,10ZM2.787,10.4A8.113,8.113,0,0,1,10.9,2.287V.4a10,10,0,0,0-10,10ZM10.9,2.287A8.113,8.113,0,0,1,19.013,10.4H20.9a10,10,0,0,0-10-10Z" transform="translate(868.1 1378.601)" fill="#979797"/></g></svg>